<?xml version="1.0" encoding="UTF-8" standalone="no"?>
<svg
   xmlns:dc="http://purl.org/dc/elements/1.1/"
   xmlns:cc="http://creativecommons.org/ns#"
   xmlns:rdf="http://www.w3.org/1999/02/22-rdf-syntax-ns#"
   xmlns:svg="http://www.w3.org/2000/svg"
   xmlns="http://www.w3.org/2000/svg"
   viewBox="0 0 5333.3335 800"
   height="800"
   width="5333.3335"
   xml:space="preserve"
   id="svg2"
   version="1.1"><metadata
     id="metadata8"><rdf:RDF><cc:Work
         rdf:about=""><dc:format>image/svg+xml</dc:format><dc:type
           rdf:resource="http://purl.org/dc/dcmitype/StillImage" /></cc:Work></rdf:RDF></metadata><defs
     id="defs6"><clipPath
       id="clipPath18"
       clipPathUnits="userSpaceOnUse"><path
         id="path16"
         d="M 0,600 H 4000 V 0 H 0 Z" /></clipPath></defs><g
     transform="matrix(1.3333333,0,0,-1.3333333,0,800)"
     id="g10"><g
       id="g12"><g
         clip-path="url(#clipPath18)"
         id="g14"><g
           transform="translate(247.3774,472.5068)"
           id="g20"><path
             id="path22"
             style="fill:#fee361;fill-opacity:1;fill-rule:nonzero;stroke:none"
             d="M 0,0 H 117 C 117,0 111,-56 58.5,-55 6,-54 0,0 0,0" /></g><g
           transform="translate(247.3774,472.0068)"
           id="g24"><path
             id="path26"
             style="fill:#a9a9a9;fill-opacity:1;fill-rule:nonzero;stroke:none"
             d="M 0,0 C 63.141,0 114.5,-49.79 114.5,-111 114.5,-172.21 63.141,-222 0,-222 v 58 c 31.15,0 56.5,23.78 56.5,53 0,29.221 -25.35,53 -56.5,53 z" /></g><g
           transform="translate(189.3774,94.5068)"
           id="g28"><path
             id="path30"
             style="fill:#6acdec;fill-opacity:1;fill-rule:nonzero;stroke:none"
             d="M 0,0 H 117 C 117,0 111,-56 58.5,-55 6,-54 0,0 0,0" /></g><g
           transform="translate(188.3774,260.5068)"
           id="g32"><path
             id="path34"
             style="fill:#6b7a8f;fill-opacity:1;fill-rule:nonzero;stroke:none"
             d="M 0,0 C -76.124,-12.892 -79,-122 30,-113.194 120,-107 103,-153 121.976,-168 206.193,-150.983 185.355,-35.938 73.087,-56 31.391,-62.064 0,-23.797 0,0" /></g><g
           transform="translate(247.3774,472.0068)"
           id="g36"><path
             id="path38"
             style="fill:#caebf2;fill-opacity:1;fill-rule:nonzero;stroke:none"
             d="m 0,0 c -63.141,0 -114.5,-49.79 -114.5,-111 0,-61.21 51.359,-111 114.5,-111 v 58 c -31.15,0 -56.5,23.78 -56.5,53 0,29.221 25.35,53 56.5,53 z" /></g><g
           transform="translate(1517.6816,421.4585)"
           id="g40"><path
             id="path42"
             style="fill:#6b7a8f;fill-opacity:1;fill-rule:nonzero;stroke:none"
             d="M 0,0 C 12.891,76.124 122,79 113.193,-30 107,-120 153,-103 168,-121.976 150.982,-206.193 35.938,-185.355 56,-73.087 62.064,-31.392 23.797,0 0,0" /></g><g
           transform="translate(702.4492,329.0298)"
           id="g44"><path
             id="path46"
             style="fill:#6b7a8f;fill-opacity:1;fill-rule:nonzero;stroke:none"
             d="m 0,0 c 6.194,90 -39.806,73 -54.806,91.976 17.017,84.217 132.063,63.379 112,-48.889 z" /></g><g
           transform="translate(702.4229,359.501)"
           id="g48"><path
             id="path50"
             style="fill:#a9a9a9;fill-opacity:1;fill-rule:nonzero;stroke:none"
             d="M 0,0 C 0,63.14 49.79,114.499 111,114.499 172.21,114.499 222,63.14 222,0 H 164 C 164,31.15 140.22,56.499 111,56.499 81.779,56.499 58,31.15 58,0 Z" /></g><g
           transform="translate(866.1489,307.7915)"
           id="g52"><path
             id="path54"
             style="fill:#a9a9a9;fill-opacity:1;fill-rule:nonzero;stroke:none"
             d="m 0,0 c 0,0 0.362,22.681 0.292,32.071 -0.07,9.39 -0.229,31.985 -0.229,31.985 l 57.491,0.308 c 0,0 0.703,-27.38 0.737,-31.863 C 58.324,28.019 58.028,0.392 58.028,0.392 Z" /></g><g
           transform="translate(702.4229,301.8481)"
           id="g56"><path
             id="path58"
             style="fill:#a9a9a9;fill-opacity:1;fill-rule:nonzero;stroke:none"
             d="m 0,0 c 0,0 0.362,22.681 0.292,32.071 -0.07,9.39 -0.229,31.985 -0.229,31.985 l 57.491,0.308 c 0,0 0.703,-27.38 0.737,-31.863 C 58.324,28.019 58.028,0.392 58.028,0.392 Z" /></g><g
           transform="translate(865.8926,250.5)"
           id="g60"><path
             id="path62"
             style="fill:#a9a9a9;fill-opacity:1;fill-rule:nonzero;stroke:none"
             d="M 0,0 V 117 C 0,117 58.562,111 57.516,58.5 56.47,5.999 0,0 0,0" /></g><g
           transform="translate(702.8047,250.5)"
           id="g64"><path
             id="path66"
             style="fill:#a9a9a9;fill-opacity:1;fill-rule:nonzero;stroke:none"
             d="M 0,0 V 117 C 0,117 58.562,111 57.516,58.5 56.47,6 0,0 0,0" /></g><g
           transform="translate(2904.6768,326.1138)"
           id="g68"><path
             id="path70"
             style="fill:#fee361;fill-opacity:1;fill-rule:nonzero;stroke:none"
             d="m 0,0 -103.803,53.984 c 0,0 -20.513,-52.452 26.525,-75.788 C -30.239,-45.14 0,0 0,0" /></g><g
           transform="translate(2750.8691,406.4248)"
           id="g72"><path
             id="path74"
             style="fill:#6acdec;fill-opacity:1;fill-rule:nonzero;stroke:none"
             d="m 0,0 c 17.763,38.854 56.111,65.806 100.451,65.805 31.56,0 60.08,-13.65 80.31,-35.53 5.71,-6.17 10.76,-13 15.02,-20.36 l -48.23,-32.75 c -8.81,18.18 -26.62,30.64 -47.1,30.64 -22.042,0 -40.994,-14.432 -48.968,-34.901" /></g><g
           transform="translate(2802.3525,379.3291)"
           id="g76"><path
             id="path78"
             style="fill:#a9a9a9;fill-opacity:1;fill-rule:nonzero;stroke:none"
             d="m 0,0 c -2.21,-5.672 -3.577,-11.808 -3.933,-18.229 -0.019,0.33 -58,-1.37 -58,-1.37 0.01,0.23 0.021,3.19 0.04,3.42 0.695,15.41 4.357,30.033 10.41,43.275" /></g><g
           transform="translate(2894.5596,331.8398)"
           id="g80"><path
             id="path82"
             style="fill:#a9a9a9;fill-opacity:1;fill-rule:nonzero;stroke:none"
             d="M 0,0 53.48,-23.5 C 46.771,-35.76 37.931,-46.63 27.48,-55.561 8.271,-71.99 -16.39,-81.87 -43.239,-81.87 c -59.481,0 -108.181,49.081 -110.87,109.76 -0.003,0.069 11.24,3.909 21,4.195 17.079,0.5 36.988,-2.512 36.969,-2.825 1.64,-29.59 24.75,-53.13 52.901,-53.13 17.83,0 33.63,9.43 43.239,23.87" /></g><g
           transform="translate(3190.2217,359.875)"
           id="g84"><path
             id="path86"
             style="fill:#6acdec;fill-opacity:1;fill-rule:nonzero;stroke:none"
             d="m 0,0 c 0,0 -57.979,0.551 -58,0.221 -0.35,6.44 -1.729,12.59 -3.95,18.28 -7.98,20.44 -26.92,34.85 -48.949,34.85 -28.151,0 -51.261,-23.54 -52.901,-53.13 -0.019,0.33 -58,0.217 -58,0.217 2.41,60.949 51.231,110.913 110.901,110.913 31.559,0 60.08,-13.65 80.309,-35.53 14.14,-15.29 24.22,-34.6 28.45,-56.08 C -0.97,13.841 -0.25,6.19 0,0" /></g><g
           transform="translate(3190.2217,359.875)"
           id="g88"><path
             id="path90"
             style="fill:#a9a9a9;fill-opacity:1;fill-rule:nonzero;stroke:none"
             d="m 0,0 c -0.439,-10.98 -2.38,-22.709 -5.62,-32.689 -6.64,-20.48 -18.76,-38.41 -34.56,-51.911 -19.21,-16.429 -43.87,-26.308 -70.719,-26.308 -59.67,0 -108.491,50.554 -110.901,111.503 0,0 57.422,1.686 58,-0.374 1.64,-29.59 24.75,-53.13 52.901,-53.13 20,0 37.449,11.87 46.469,29.36 3.68,7.13 5.96,15.19 6.43,23.77 C -58.162,2.432 0,0 0,0" /></g><g
           transform="translate(3452.0254,401.1353)"
           id="g92"><path
             id="path94"
             style="fill:#6b7a8f;fill-opacity:1;fill-rule:nonzero;stroke:none"
             d="m 0,0 116.998,0.898 c 0,0 -0.011,-0.059 -0.019,-0.188 0,-0.012 -0.01,-0.021 -0.01,-0.031 0,-0.06 -0.009,-0.13 -0.019,-0.211 -0.047,-0.361 -0.133,-0.921 -0.257,-1.682 v -0.01 c -0.095,-0.531 -0.211,-1.161 -0.346,-1.861 -0.038,-0.171 -0.066,-0.352 -0.117,-0.532 l 10e-4,-0.01 C 114.062,-14.115 106.2,-40.015 80.648,-50.281 l -0.009,-10e-4 c -0.728,-0.295 -1.476,-0.581 -2.234,-0.847 h -0.009 c -2.744,-0.971 -5.687,-1.754 -8.833,-2.328 -0.219,-0.051 -0.45,-0.084 -0.669,-0.115 H 68.863 C 65.758,-54.127 62.44,-54.451 58.921,-54.549 34.976,-55.191 20.617,-43.893 12.083,-31.427 3.142,-18.365 0.591,-4.006 0.096,-0.708 0.031,-0.25 0,0 0,0" /></g><g
           transform="translate(3617.0332,350.3877)"
           id="g96"><path
             id="path98"
             style="fill:#6b7a8f;fill-opacity:1;fill-rule:nonzero;stroke:none"
             d="m 0,0 -116.944,-3.636 c 0,0 0.008,0.06 0.014,0.19 0,0.011 0.01,0.02 0.009,0.031 -10e-4,0.06 0.006,0.13 0.014,0.211 0.039,0.361 0.111,0.924 0.218,1.687 v 0.01 c 0.083,0.533 0.183,1.166 0.302,1.869 0.034,0.172 0.058,0.353 0.104,0.534 l -0.001,0.01 c 1.924,10.536 9.177,36.613 34.481,47.475 l 0.01,10e-4 c 0.721,0.311 1.462,0.615 2.213,0.898 h 0.01 c 2.719,1.035 5.644,1.887 8.776,2.534 0.218,0.057 0.447,0.095 0.666,0.131 l 0.03,10e-4 c 3.092,0.627 6.401,1.03 9.917,1.209 23.924,1.203 38.542,-9.757 47.367,-22.019 C -3.57,18.287 -0.685,3.991 -0.112,0.706 -0.037,0.249 0,0 0,0" /></g><g
           transform="translate(3449.3535,420.46)"
           id="g100"><path
             id="path102"
             style="fill:#6b7a8f;fill-opacity:1;fill-rule:nonzero;stroke:none"
             d="M 0,0 C 12.891,76.124 122,79 113.193,-30 107,-120 153,-103 168,-121.976 150.982,-206.192 35.938,-185.354 56,-73.087 62.064,-31.392 23.797,0 0,0" /></g><g
           transform="translate(3380.6172,329.1064)"
           id="g104"><path
             id="path106"
             style="fill:#fee361;fill-opacity:1;fill-rule:nonzero;stroke:none"
             d="m 0,0 -102.597,58.027 c 0,0 -21.563,-51.604 24.521,-76.773 C -31.992,-43.915 0,0 0,0" /></g><g
           transform="translate(3324.5898,247.9277)"
           id="g108"><path
             id="path110"
             style="fill:#a9a9a9;fill-opacity:1;fill-rule:nonzero;stroke:none"
             d="m 0,0 c -61.09,4.572 -110.291,55.03 -109.431,118.164 l 57.996,-0.791 C -51.858,86.225 -30.84,63.822 0.789,58.104" /></g><g
           transform="translate(3428.0205,300.4473)"
           id="g112"><path
             id="path114"
             style="fill:#a9a9a9;fill-opacity:1;fill-rule:nonzero;stroke:none"
             d="m 0,0 c -31.605,-52.42 -101.297,-68.541 -155.369,-35.939 l 29.949,49.67 c 26.678,-16.084 60.662,-8.807 75.749,16.215" /></g><g
           transform="translate(3295.4854,467.0083)"
           id="g116"><path
             id="path118"
             style="fill:#6acdec;fill-opacity:1;fill-rule:nonzero;stroke:none"
             d="M 0,0 C 58.735,17.227 121.694,-18.768 139.463,-79.356 L 83.806,-95.679 c -8.768,29.892 -40.128,48.77 -68.166,40.546" /></g><g
           transform="translate(3228.1582,415.9561)"
           id="g120"><path
             id="path122"
             style="fill:#6acdec;fill-opacity:1;fill-rule:nonzero;stroke:none"
             d="M 0,0 C 30.521,53.059 99.866,70.609 154.598,39.126 L 125.676,-11.15 C 98.674,4.382 64.844,-3.592 50.276,-28.919" /></g><g
           transform="translate(3898.7305,308.0801)"
           id="g124"><path
             id="path126"
             style="fill:#6b7a8f;fill-opacity:1;fill-rule:nonzero;stroke:none"
             d="m 0,0 c -5.211,-52.93 -51.86,-69.6 -84.61,-47.65 -3.731,2.5 -7.271,5.5 -10.55,9 -9.16,9.76 -16.29,23.43 -19.611,41.1 -0.99,5.24 -1.639,10.83 -1.9,16.78 2.771,3.26 5.2,6.87 7.2,10.75 3.031,5.87 5.111,12.38 6.01,19.29 l 2.53,2.34 0.83,0.77 36.281,33.59 c 0.439,-13.55 1.809,-24.58 3.88,-33.59 0.049,-0.21 0.089,-0.43 0.15,-0.64 2.649,-11.28 6.399,-19.35 10.8,-25.27 C -34.601,7.08 -13.381,10.91 -1.801,1.63 -1.73,1.58 -1.66,1.52 -1.591,1.46 -1.03,1.01 -0.5,0.52 0,0" /></g><g
           transform="translate(3797.0566,359.8857)"
           id="g128"><path
             id="path130"
             style="fill:#fee361;fill-opacity:1;fill-rule:nonzero;stroke:none"
             d="m 0,0 -108.369,-0.103 c 0,0 0.009,0.056 0.018,0.181 0,0.01 0.011,0.02 0.009,0.03 -0.001,0.056 0.008,0.123 0.018,0.202 0.048,0.344 0.131,0.883 0.25,1.612 v 0.01 c 0.092,0.507 0.202,1.113 0.331,1.784 0.035,0.164 0.061,0.336 0.11,0.509 v 0.009 c 2.069,10.052 9.498,34.857 33.225,44.542 l 0.009,10e-4 c 0.676,0.279 1.37,0.55 2.071,0.8 l 0.01,-10e-4 c 2.547,0.915 5.279,1.647 8.197,2.176 0.201,0.048 0.415,0.079 0.618,0.107 l 0.027,10e-4 c 2.882,0.512 5.955,0.802 9.215,0.872 C -32.076,53.194 -18.845,42.256 -11.01,30.24 -2.803,17.646 -0.523,3.848 -0.084,0.681 -0.028,0.24 0,0 0,0" /></g><g
           transform="translate(3795.6641,359.6763)"
           id="g132"><path
             id="path134"
             style="fill:#6acdec;fill-opacity:1;fill-rule:nonzero;stroke:none"
             d="m 0,0 c -0.1,29.221 -25.53,52.914 -56.68,52.808 l -0.198,57.999 C 6.261,111.023 57.79,61.41 57.999,0.198 Z" /></g><g
           transform="translate(3853.6904,360.46)"
           id="g136"><path
             id="path138"
             style="fill:#a9a9a9;fill-opacity:1;fill-rule:nonzero;stroke:none"
             d="m 0,0 c -0.011,-0.2 -0.021,-0.39 -0.03,-0.59 -0.391,-8.73 -1.731,-17.21 -3.92,-25.32 -0.51,-1.9 -1.071,-3.78 -1.67,-5.63 -2.12,-6.55 -4.811,-12.84 -8,-18.8 -6.771,-12.7 -15.811,-23.93 -26.561,-33.11 -3.17,-2.71 -6.49,-5.24 -9.939,-7.58 -0.561,-0.38 -1.12,-0.75 -1.691,-1.12 -17.12,-11.16 -37.389,-17.61 -59.089,-17.61 -59.67,0 -108.491,48.81 -110.901,109.76 h 57.901 c 0,0.46 0.009,0.91 0.019,1.37 0.011,-0.34 0.021,-0.67 0.03,-1 0.01,0.34 0.031,0.67 0.05,1 0.04,-0.69 0.091,-1.37 0.151,-2.05 2.57,-28.62 25.25,-51.08 52.75,-51.08 15.559,0 29.57,7.18 39.269,18.61 2.771,3.26 5.2,6.87 7.2,10.75 3.031,5.87 5.111,12.38 6.01,19.29 0.12,0.84 0.211,1.69 0.28,2.54 0.04,0.38 0.071,0.76 0.09,1.15 v 0.04 c 0.021,0.25 0.04,0.5 0.051,0.75 0.02,-0.33 0.04,-0.66 0.05,-1 0.01,0.33 0.019,0.66 0.029,1 C -57.91,0.91 -57.9,0.46 -57.9,0 Z" /></g><g
           transform="translate(1940.4331,310.1377)"
           id="g140"><path
             id="path142"
             style="fill:#caebf2;fill-opacity:1;fill-rule:nonzero;stroke:none"
             d="m 0,0 c -18.165,-37.754 -55.939,-63.762 -99.496,-63.762 -61.21,0 -110.999,51.36 -110.999,114.5 h 58 c 0,-31.15 23.779,-56.5 52.999,-56.5 20.889,0 38.997,12.955 47.626,31.723 z" /></g><g
           transform="translate(1899.4355,360.127)"
           id="g144"><path
             id="path146"
             style="fill:#6acdec;fill-opacity:1;fill-rule:nonzero;stroke:none"
             d="m 0,0 h -116.999 c 0,0 5.909,58.917 58.41,57.969 C -6.087,57.02 0,0 0,0" /></g><g
           transform="translate(1729.938,360.127)"
           id="g148"><path
             id="path150"
             style="fill:#a9a9a9;fill-opacity:1;fill-rule:nonzero;stroke:none"
             d="M 0,0 C 0,63.14 49.789,114.499 111,114.499 172.21,114.499 221.999,63.14 221.999,0 h -58 C 163.999,31.15 140.22,56.499 111,56.499 81.779,56.499 58,31.15 58,0 Z" /></g><g
           transform="translate(2467.5176,310.0674)"
           id="g152"><path
             id="path154"
             style="fill:#caebf2;fill-opacity:1;fill-rule:nonzero;stroke:none"
             d="m 0,0 c -18.166,-37.754 -55.939,-63.762 -99.496,-63.762 -61.211,0 -111,51.36 -111,114.5 h 58 c 0,-31.15 23.779,-56.5 53,-56.5 20.889,0 38.996,12.955 47.625,31.723 z" /></g><g
           transform="translate(2426.5195,360.0566)"
           id="g156"><path
             id="path158"
             style="fill:#6acdec;fill-opacity:1;fill-rule:nonzero;stroke:none"
             d="m 0,0 h -116.999 c 0,0 5.909,58.917 58.409,57.969 C -6.088,57.02 0,0 0,0" /></g><g
           transform="translate(2257.0215,360.0566)"
           id="g160"><path
             id="path162"
             style="fill:#a9a9a9;fill-opacity:1;fill-rule:nonzero;stroke:none"
             d="M 0,0 C 0,63.14 49.789,114.499 111,114.499 172.211,114.499 222,63.14 222,0 H 164 C 164,31.15 140.221,56.499 111,56.499 81.779,56.499 58,31.15 58,0 Z" /></g><g
           transform="translate(1181.4194,312.0132)"
           id="g164"><path
             id="path166"
             style="fill:#caebf2;fill-opacity:1;fill-rule:nonzero;stroke:none"
             d="m 0,0 c -18.165,-37.753 -55.939,-63.761 -99.496,-63.761 -61.21,0 -110.999,51.359 -110.999,114.499 h 58 c 0,-31.15 23.779,-56.5 52.999,-56.5 20.889,0 38.997,12.955 47.626,31.723 z" /></g><g
           transform="translate(1140.4219,362.0024)"
           id="g168"><path
             id="path170"
             style="fill:#6acdec;fill-opacity:1;fill-rule:nonzero;stroke:none"
             d="m 0,0 h -116.999 c 0,0 5.909,58.917 58.41,57.969 C -6.087,57.02 0,0 0,0" /></g><g
           transform="translate(970.9243,362.0024)"
           id="g172"><path
             id="path174"
             style="fill:#a9a9a9;fill-opacity:1;fill-rule:nonzero;stroke:none"
             d="M 0,0 C 0,63.14 49.789,114.499 111,114.499 172.21,114.499 221.999,63.14 221.999,0 h -58 C 163.999,31.15 140.22,56.499 111,56.499 81.779,56.499 58,31.15 58,0 Z" /></g><g
           transform="translate(605.3613,312.0132)"
           id="g176"><path
             id="path178"
             style="fill:#caebf2;fill-opacity:1;fill-rule:nonzero;stroke:none"
             d="m 0,0 c -18.165,-37.753 -55.939,-63.761 -99.496,-63.761 -61.21,0 -110.999,51.359 -110.999,114.499 h 58 c 0,-31.15 23.779,-56.5 52.999,-56.5 20.889,0 38.997,12.955 47.626,31.723 z" /></g><g
           transform="translate(564.3638,362.0024)"
           id="g180"><path
             id="path182"
             style="fill:#6acdec;fill-opacity:1;fill-rule:nonzero;stroke:none"
             d="m 0,0 h -116.999 c 0,0 5.909,58.917 58.41,57.969 C -6.087,57.02 0,0 0,0" /></g><g
           transform="translate(394.8662,362.0024)"
           id="g184"><path
             id="path186"
             style="fill:#a9a9a9;fill-opacity:1;fill-rule:nonzero;stroke:none"
             d="M 0,0 C 0,63.14 49.789,114.499 111,114.499 172.21,114.499 221.999,63.14 221.999,0 h -58 C 163.999,31.15 140.22,56.499 111,56.499 81.779,56.499 58,31.15 58,0 Z" /></g><g
           transform="translate(1409.5493,474.7529)"
           id="g188"><path
             id="path190"
             style="fill:#a9a9a9;fill-opacity:1;fill-rule:nonzero;stroke:none"
             d="m 0,0 v -117 c 0,0 58.562,6 57.517,58.5 C 56.47,-6 0,0 0,0" /></g><g
           transform="translate(1245.46,423.3994)"
           id="g192"><path
             id="path194"
             style="fill:#a9a9a9;fill-opacity:1;fill-rule:nonzero;stroke:none"
             d="m 0,0 v 51.351 c 0,0 56.469,-6 57.52,-58.499 0.04,-1.791 0,-3.522 -0.1,-5.202 -1.371,-23.599 -15.44,-36.888 -29.31,-44.298 -5.779,-3.09 -11.52,-5.161 -16.29,-6.522 -5.851,-1.67 -10.25,-2.289 -11.47,-2.439 -0.04,0.529 -0.07,1.05 -0.1,1.58 z" /></g><path
           id="path196"
           style="fill:#a9a9a9;fill-opacity:1;fill-rule:nonzero;stroke:none"
           d="m 1466.75,362.751 h -57.5 v 55 h 57.5 z" /><g
           transform="translate(1302.978,362.7505)"
           id="g198"><path
             id="path200"
             style="fill:#a9a9a9;fill-opacity:1;fill-rule:nonzero;stroke:none"
             d="M 0,0 H -57.5 V 50.501 H 0 Z" /></g><g
           transform="translate(1245.71,355.3701)"
           id="g202"><path
             id="path204"
             style="fill:#caebf2;fill-opacity:1;fill-rule:nonzero;stroke:none"
             d="m 0,0 c 0.03,-0.529 0.06,-1.051 0.1,-1.58 4.41,-58.971 110.27,-105.541 110.27,-105.541 0,0 103.339,44.131 109.83,100.871 v 0.01 c 0.15,1.23 0.28,2.451 0.37,3.689 0.01,0.051 0.01,0.112 0.01,0.17 0.26,3 0.39,6.051 0.4,9.121 v 0.071 c 0.01,0.189 0.01,0.378 0.01,0.57 H 190.959 163.37 c 0,-1.551 -0.06,-3.07 -0.18,-4.58 0.01,-0.022 0.01,-0.051 0,-0.071 -0.08,-1.111 -0.2,-2.22 -0.35,-3.31 -3.64,-27.4 -52.47,-46.539 -52.47,-46.539 0,0 -53.25,23.349 -53.25,54.5 H 57.02 27.86 -0.03 Z" /></g><g
           transform="translate(2162.4844,470.4424)"
           id="g206"><path
             id="path208"
             style="fill:#a9a9a9;fill-opacity:1;fill-rule:nonzero;stroke:none"
             d="m 0,0 v -117 c 0,0 58.561,6 57.516,58.5 C 56.469,-6 0,0 0,0" /></g><g
           transform="translate(1998.3945,419.0889)"
           id="g210"><path
             id="path212"
             style="fill:#a9a9a9;fill-opacity:1;fill-rule:nonzero;stroke:none"
             d="m 0,0 v 51.351 c 0,0 56.469,-6 57.52,-58.499 0.041,-1.791 0,-3.522 -0.1,-5.202 C 56.049,-35.949 41.98,-49.238 28.109,-56.648 22.33,-59.738 16.59,-61.809 11.82,-63.17 5.969,-64.84 1.57,-65.459 0.35,-65.609 c -0.039,0.529 -0.071,1.05 -0.1,1.58 z" /></g><path
           id="path214"
           style="fill:#a9a9a9;fill-opacity:1;fill-rule:nonzero;stroke:none"
           d="m 2219.685,358.44 h -57.5 v 55 h 57.5 z" /><path
           id="path216"
           style="fill:#a9a9a9;fill-opacity:1;fill-rule:nonzero;stroke:none"
           d="m 2055.912,358.44 h -57.5 v 50.5 h 57.5 z" /><g
           transform="translate(1998.6445,351.0596)"
           id="g218"><path
             id="path220"
             style="fill:#caebf2;fill-opacity:1;fill-rule:nonzero;stroke:none"
             d="m 0,0 c 0.029,-0.529 0.061,-1.051 0.1,-1.58 4.41,-58.971 110.269,-105.541 110.269,-105.541 0,0 103.34,44.131 109.83,100.871 v 0.01 c 0.151,1.23 0.281,2.451 0.371,3.689 0.01,0.051 0.01,0.112 0.01,0.17 0.26,3 0.391,6.051 0.4,9.121 v 0.071 c 0.01,0.189 0.01,0.378 0.01,0.57 h -30.031 -27.59 c 0,-1.551 -0.058,-3.07 -0.18,-4.58 0.01,-0.022 0.01,-0.051 0,-0.071 -0.08,-1.111 -0.199,-2.22 -0.349,-3.31 -3.641,-27.4 -52.471,-46.539 -52.471,-46.539 0,0 -53.25,23.349 -53.25,54.5 H 57.02 27.859 -0.03 Z" /></g></g></g></g></svg>